<svg height="512" viewBox="0 0 24 24" width="512" xmlns="http://www.w3.org/2000/svg" xmlns:xlink="http://www.w3.org/1999/xlink"><linearGradient id="New_Gradient_Swatch" gradientUnits="userSpaceOnUse" x1="16" x2="9.171" y1="16" y2="9.171"><stop offset="0" stop-color="#60efff"/><stop offset=".1168" stop-color="#5ff1f2"/><stop offset=".5033" stop-color="#5ef6ca"/><stop offset=".8112" stop-color="#5cf9b2"/><stop offset="1" stop-color="#5cfaa9"/></linearGradient><g id="Layer_4" data-name="Layer 4"><path d="m18 12v2a3.9989 3.9989 0 0 0 -4 4h-2a3.9989 3.9989 0 0 1 -4-4v-2a3.9989 3.9989 0 0 1 4-4h2a3.9989 3.9989 0 0 1 4 4z" fill="url(#New_Gradient_Swatch)"/></g><g id="Layer_5" data-name="Layer 5"><path d="m19 13.1011v-1.1011a5.0059 5.0059 0 0 0 -5-5h-1v-3a3.0033 3.0033 0 0 0 -3-3h-6a3.0033 3.0033 0 0 0 -3 3v6a3.0033 3.0033 0 0 0 3 3h3v1a5.0059 5.0059 0 0 0 5 5h1.1011a5 5 0 1 0 5.8989-5.8989zm-11.8989-2.1011h-3.1011a1.0013 1.0013 0 0 1 -1-1v-6a1.0013 1.0013 0 0 1 1-1h6a1.0013 1.0013 0 0 1 1 1v3.1011a5.0142 5.0142 0 0 0 -3.8989 3.8989zm6 6h-1.1011a3.0033 3.0033 0 0 1 -3-3v-2a3.0033 3.0033 0 0 1 3-3h2a3.0033 3.0033 0 0 1 3 3v1.1011a5.0142 5.0142 0 0 0 -3.8989 3.8989zm4.8989 4a3 3 0 1 1 3-3 3.0033 3.0033 0 0 1 -3 3z" fill="#212529"/></g></svg>