<svg height="512" viewBox="0 0 32 32" width="512" xmlns="http://www.w3.org/2000/svg"><g id="Layer_5" data-name="Layer 5"><g fill="#2b2e6a"><path d="m31 32h-30a1 1 0 0 1 -1-1v-30a1 1 0 0 1 1-1h7.51a1 1 0 0 1 1 1v7.51a1 1 0 0 1 -2 0v-6.51h-5.51v28h28v-5.51h-6.51a1 1 0 0 1 0-2h7.51a1 1 0 0 1 1 1v7.51a1 1 0 0 1 -1 1z"/><path d="m16 17a1 1 0 0 1 -1-1v-6.49h-6.49a1 1 0 0 1 0-2h7.49a1 1 0 0 1 1 1v7.49a1 1 0 0 1 -1 1z"/><path d="m23.49 24.49a1 1 0 0 1 -1-1v-6.49h-6.49a1 1 0 0 1 0-2h7.49a1 1 0 0 1 1 1v7.49a1 1 0 0 1 -1 1z"/></g><path d="m30.55 20.13a1 1 0 0 1 -.71-.29l-6.72-6.72a3.19 3.19 0 0 1 0-4.52l1.42-1.42a1.2 1.2 0 0 0 0-1.69l-2.93-2.94a1 1 0 0 1 1.39-1.41l3 2.94a3.2 3.2 0 0 1 0 4.52l-1.46 1.4a1.2 1.2 0 0 0 0 1.69l6.72 6.72a1 1 0 0 1 -.71 1.71z" fill="#9752ff"/><path d="m21.49 5.31a1 1 0 0 1 -1-1v-3.31a1 1 0 0 1 1-1h3.28a1 1 0 0 1 0 2h-2.28v2.31a1 1 0 0 1 -1 1z" fill="#9752ff"/></g></svg>