<svg id="Capa_1" enable-background="new 0 0 512 512" height="512" viewBox="0 0 512 512" width="512" xmlns="http://www.w3.org/2000/svg"><g><path fill="#9bbfbe"  d="m512 90v-90h-90v30h-121v-30h-90v30h-121v-30h-90v90h30v121h-30v90h30v121h-30v90h90v-30h121v30h90v-30h121v30h90v-90h-30v-121h30v-90h-30v-121zm-60-60h30v30h-30zm-211 0h30v30h-30zm-211 0h30v30h-30zm0 211h30v30h-30zm30 241h-30v-30h30zm211 0h-30v-30h30zm211 0h-30v-30h30zm0-211h-30v-30h30zm-30-60h-30v90h30v121h-30v30h-121v-30h-90v30h-121v-30h-30v-121h30v-90h-30v-121h30v-30h121v30h90v-30h121v30h30z"/><path d="m294.5 125.875h-90.963l-60.037 60.037v.213 200h168.121l56.879-55.694v-94.306h-74zm-16 230.25h-105v-140h30v110h75zm60-90v51.694l-30 29.375v-51.069h-75v-110h-47.787l30.25-30.25h48.537v110.25z"/></g></svg>