<svg id="Capa_1" enable-background="new 0 0 512.005 512.005" height="512" viewBox="0 0 512.005 512.005" width="512" xmlns="http://www.w3.org/2000/svg"><g><g><path d="m241.002 351.5h31v102h-31z" fill="#2f535a"/><path d="m212.543 452.5h87.919c19.179 0 35.658 13.612 39.28 32.446l1.474 7.665c1.186 6.167-3.54 11.888-9.82 11.888h-149.787c-6.28 0-11.006-5.721-9.82-11.888l1.474-7.665c3.622-18.834 20.101-32.446 39.28-32.446z" fill="#3c6a73"/><path d="m191.792 492.61c-1.19 6.17 3.54 11.89 9.82 11.89h-20c-6.28 0-11.01-5.72-9.82-11.89l1.47-7.66c3.62-18.84 20.1-32.45 39.28-32.45h20c-19.18 0-35.66 13.61-39.28 32.45z" fill="#2f535a"/><path d="m278.002 366.5h-44c-60.103 0-109-48.897-109-109v-41c0-8.284 6.716-15 15-15s15 6.716 15 15v41c0 43.561 35.439 79 79 79h44c43.561 0 79-35.439 79-79v-41c0-8.284 6.716-15 15-15s15 6.716 15 15v41c0 60.103-48.897 109-109 109z" fill="#3c6a73"/><path d="m237.002 322.5h38c5.523 0 10 4.477 10 10v38c0 5.523-4.477 10-10 10h-38c-5.523 0-10-4.477-10-10v-4.224l10-14.776-10-15.309v-3.691c0-5.523 4.478-10 10-10z" fill="#3c6a73"/><g fill="#2f535a"><path d="m155.482 266.19h-30.13c-.23-2.86-.35-5.76-.35-8.69v-11l17.138-7.543 12.862 7.543v11c0 2.94.16 5.83.48 8.69z"/><path d="m387.002 246.5v11c0 2.93-.12 5.83-.35 8.69h-30.13c.32-2.86.48-5.75.48-8.69v-11l14.76-7.543z"/><path d="m257.002 380.5h-20c-5.52 0-10-4.48-10-10v-4.224-30.085-3.691c0-5.52 4.48-10 10-10h20c-5.52 0-10 4.48-10 10v38c0 5.52 4.48 10 10 10z"/></g><path d="m126.002 246.5h76v-60h-76c-13.807 0-25 11.193-25 25v10c0 13.807 11.193 25 25 25z" fill="#3c6a73"/><path d="m310.737 246.5h75.266c13.807 0 25-11.193 25-25v-10c0-13.807-11.193-25-25-25h-75.266z" fill="#3c6a73"/><path d="m232.002 7.5h48c27.614 0 50 22.386 50 50v103l-4.202 80.67c0 27.614-18.184 46.33-45.798 46.33h-48c-27.614 0-46-17.386-46-45l-4-82v-103c0-27.614 22.386-50 50-50z" fill="#9bb9c3"/><path d="m252.002 7.5c-21.64 0-40.08 13.76-47.03 33l-11.485 7.138-8.515-7.138c6.95-19.24 25.39-33 47.03-33z" fill="#87a0af"/><path d="m202.002 186.5v60h-36.87c-.09-1.32-.13-2.66-.13-4v-56z" fill="#2f535a"/><path d="m347.002 186.5v56c0 1.34-.04 2.68-.13 4h-36.14v-60z" fill="#2f535a"/><path d="m330.002 160.5v82c0 27.61-22.39 50-50 50h-48c-27.61 0-50-22.39-50-50v-82z" fill="#dc4955"/><path d="m182.002 100.5h148v30h-148z" fill="#b4d2d7"/><path d="m330.002 57.5v13h-148v-13c0-5.97 1.05-11.69 2.97-17h142.06c1.92 5.31 2.97 11.03 2.97 17z" fill="#b4d2d7"/><path d="m202.002 130.5v30l-10 5.606-10-5.606v-30l11.485-6.777z" fill="#87a0af"/><path d="m252.002 292.5h-20c-27.61 0-50-22.39-50-50v-82h20v82c0 27.61 22.391 50 50 50z" fill="#d82f3c"/><path d="m202.002 100.5v30h-20v-30l10-8.436z" fill="#9bb9c3"/><path d="m204.972 40.5c-1.92 5.31-2.97 11.03-2.97 17v13l-10 6.074-10-6.074v-13c.01-3.929.445-7.865 1.38-11.68.43-1.81.96-3.59 1.59-5.32z" fill="#9bb9c3"/><path d="m182.002 70.5h20v30h-20z" fill="#87a0af"/></g><path d="m386.002 179h-48.5v-121.5c0-7.023-1.272-13.676-3.573-19.95-8.128-21.901-29.232-37.55-53.927-37.55h-48c-24.695 0-45.799 15.65-53.927 37.551-2.302 6.273-3.574 12.926-3.573 19.949v121.5h-14c-4.143 0-7.5 3.357-7.5 7.5s3.357 7.5 7.5 7.5h14v45h-48.5c-9.649 0-17.5-7.851-17.5-17.5v-10c0-9.462 7.692-17.311 17.147-17.496 4.142-.082 7.433-3.505 7.352-7.646-.081-4.091-3.422-7.353-7.496-7.353-.05 0-.101 0-.15.001-17.563.346-31.853 14.922-31.853 32.494v10c0 14.98 10.19 27.618 24 31.365v4.635c0 59.006 44.373 108.523 102.218 115.62 1.097 7.257 6.647 13.073 13.782 14.527v57.353h-20.959c-22.735 0-42.353 16.204-46.646 38.529l-1.475 7.666c-2.277 10.426 6.518 21.071 17.186 20.805h16.894c4.143 0 7.5-3.357 7.5-7.5s-3.357-7.5-7.5-7.5h-16.894c-1.904-.285-2.533-1.049-2.455-2.972l1.475-7.666c2.937-15.275 16.36-26.362 31.915-26.362h87.918c15.556 0 28.979 11.087 31.915 26.363l1.475 7.664c.078 1.924-.55 2.687-2.455 2.973h-97.894c-4.143 0-7.5 3.357-7.5 7.5s3.357 7.5 7.5 7.5h97.894c10.669.267 19.462-10.379 17.186-20.806l-1.475-7.664c-4.293-22.326-23.91-38.53-46.646-38.53h-20.959v-57.608c6.648-1.774 11.737-7.36 12.782-14.272 57.845-7.097 102.218-56.614 102.218-115.62v-4.635c13.81-3.747 24-16.385 24-31.365v-10c0-17.921-14.579-32.5-32.5-32.5zm-63.5-86h-133v-15h133zm-133 15h133v15h-133zm133-50.5v5.5h-133c-.047-4.787-.096-10.437 1.084-15h130.833c.701 3.057 1.083 6.234 1.083 9.5zm-133 80.5h133v15h-133zm42.5-123h48c14.315 0 26.99 7.122 34.695 18h-117.39c7.705-10.878 20.38-18 34.695-18zm-99.5 242.5v-3.5h15v3.5c0 21.734 8.123 42.526 22.872 58.545 13.084 14.211 30.332 23.533 49.128 26.719v15.199c-49.387-7.085-87-49.753-87-100.463zm145 113c0 1.379-1.121 2.5-2.5 2.5h-38c-1.379 0-2.5-1.121-2.5-2.5v-38c0-1.379 1.121-2.5 2.5-2.5h38c1.379 0 2.5 1.121 2.5 2.5 0 0-.001 36.09 0 38zm-29 74.5v-57h16v57zm44-87.037v-15.193c12.153-2.071 23.806-6.741 34.043-13.706 3.425-2.33 4.313-6.995 1.982-10.42s-6.995-4.312-10.42-1.982c-7.946 5.406-16.924 9.139-26.303 10.989-2.11-7.296-8.836-12.651-16.802-12.651h-38c-7.963 0-14.688 5.352-16.8 12.644-32.898-6.513-57.7-35.97-57.7-70.144v-3.5h13.158c4.622 22.893 22.787 41.098 46.576 45.173 4.076.696 7.959-2.044 8.658-6.127.699-4.082-2.044-7.959-6.127-8.658-20.435-3.5-35.266-21.116-35.266-41.888v-74.5h133v74.5c0 23.435-19.065 42.5-42.5 42.5h-21.5c-4.143 0-7.5 3.357-7.5 7.5s3.357 7.5 7.5 7.5h21.5c27.769 0 51-19.786 56.343-46h13.157v3.5c0 12.65-3.362 25.088-9.724 35.968-2.091 3.575-.887 8.169 2.689 10.26 3.513 2.071 8.157.919 10.26-2.689 7.703-13.175 11.774-28.229 11.774-43.538v-3.501h15v3.5c.002 50.71-37.61 93.378-86.998 100.463zm111-136.463c0 9.649-7.851 17.5-17.5 17.5h-48.5v-45h48.5c9.649 0 17.5 7.851 17.5 17.5z"/></g></svg>