<svg height="512" viewBox="0 0 24 24" width="512" xmlns="http://www.w3.org/2000/svg"><g id="Layer_5" data-name="Layer 5"><rect fill="#edf2ff" height="20" rx="2" width="22" x="1" y="1"/><path d="m4.72 21h-1.72a2.0059 2.0059 0 0 1 -2-2v-16a2.0059 2.0059 0 0 1 2-2h1.72a2.2472 2.2472 0 0 0 -1.22 2v16a2.2472 2.2472 0 0 0 1.22 2z" fill="#d1dbff"/><path d="m23 3a2.0059 2.0059 0 0 1 -2 2h-6.17a1.9889 1.9889 0 0 0 -1.42.59l-.82.82a1.9889 1.9889 0 0 1 -1.42.59h-7.17a2.0706 2.0706 0 0 1 -.5-.05 2.99 2.99 0 0 1 -2.5-2.95v-1a2.0059 2.0059 0 0 1 2-2h18a2.0059 2.0059 0 0 1 2 2z" fill="#9bbfbf"/><path d="m4.72 1a2.2472 2.2472 0 0 0 -1.22 2v3.95a2.99 2.99 0 0 1 -2.5-2.95v-1a2.0059 2.0059 0 0 1 2-2z" fill="#65a6a6"/><circle cx="4" cy="4" fill="#fa8f82" r="1"/><circle cx="7" cy="4" fill="#f0e486" r="1"/><circle cx="10" cy="4" fill="#a5ffd6" r="1"/><g fill="#d1dbff"><rect height="4" rx="1" width="6" x="15" y="7"/><rect height="4" rx="1" width="6" x="15" y="13"/><rect height="4" rx="1" width="6" x="15" y="19"/></g><path d="m16.51 11h-.51a1.0029 1.0029 0 0 1 -1-1v-2a1.0029 1.0029 0 0 1 1-1h.51a1.2264 1.2264 0 0 0 -.51 1v2a1.2264 1.2264 0 0 0 .51 1z" fill="#bed2e8"/><path d="m16.51 17h-.51a1.0029 1.0029 0 0 1 -1-1v-2a1.0029 1.0029 0 0 1 1-1h.51a1.2264 1.2264 0 0 0 -.51 1v2a1.2264 1.2264 0 0 0 .51 1z" fill="#bed2e8"/><path d="m16.51 23h-.51a1.0029 1.0029 0 0 1 -1-1v-2a1.0029 1.0029 0 0 1 1-1h.51a1.2264 1.2264 0 0 0 -.51 1v2a1.2264 1.2264 0 0 0 .51 1z" fill="#bed2e8"/><path d="m7.5 19a.4948.4948 0 0 1 -.5-.5v-.6367l-.1738-.0557a4.0456 4.0456 0 0 1 -.6836-.2861l-.1651-.0879-.4475.4564a.5261.5261 0 0 1 -.3614.1416.4869.4869 0 0 1 -.3486-.1411l-.71-.71a.5112.5112 0 0 1 .0009-.71l.4571-.4468-.088-.1663a3.9748 3.9748 0 0 1 -.2871-.6831l-.0562-.1743h-.6367a.4948.4948 0 0 1 -.5-.5v-1a.4948.4948 0 0 1 .5-.5h.6367l.0557-.1743a3.9947 3.9947 0 0 1 .2861-.6836l.0879-.1655-.4564-.4466a.5147.5147 0 0 1 0-.711l.71-.7094a.4906.4906 0 0 1 .3506-.1426.52.52 0 0 1 .3594.143l.4472.4565.1651-.0879a4.0456 4.0456 0 0 1 .6836-.2861l.1741-.0558v-.6367a.4948.4948 0 0 1 .5-.5h1a.4948.4948 0 0 1 .5.5v.6367l.1738.0557a4.0456 4.0456 0 0 1 .6836.2861l.1651.0879.4475-.4564a.5261.5261 0 0 1 .3614-.1416.4869.4869 0 0 1 .3486.1411l.71.71a.5112.5112 0 0 1 -.0009.71l-.4571.4468.0889.1655a3.9748 3.9748 0 0 1 .2871.6831l.0553.1751h.6367a.4948.4948 0 0 1 .5.5v1a.4948.4948 0 0 1 -.5.5h-.6367l-.0557.1743a3.9947 3.9947 0 0 1 -.2861.6836l-.0879.1655.456.4463a.5147.5147 0 0 1 0 .711l-.71.7094a.4906.4906 0 0 1 -.3506.1426.52.52 0 0 1 -.359-.1427l-.4472-.4565-.1651.0879a4.0456 4.0456 0 0 1 -.6836.2861l-.1741.0558v.6367a.4948.4948 0 0 1 -.5.5zm.5-7a2 2 0 1 0 2 2 2.0023 2.0023 0 0 0 -2-2z" fill="#a5ffd6"/><path d="m5.5 14a5.2306 5.2306 0 0 1 3.34-4.88.5607.5607 0 0 0 -.34-.12h-1a.4951.4951 0 0 0 -.5.5v.64l-.17.05a3.8588 3.8588 0 0 0 -.69.29l-.16.09-.45-.46a.5239.5239 0 0 0 -.36-.14.5.5 0 0 0 -.35.14l-.71.71a.5134.5134 0 0 0 0 .71l.46.45-.09.16a3.8588 3.8588 0 0 0 -.29.69l-.05.17h-.64a.4951.4951 0 0 0 -.5.5v1a.4951.4951 0 0 0 .5.5h.64l.05.17a3.8588 3.8588 0 0 0 .29.69l.09.16-.46.45a.5134.5134 0 0 0 0 .71l.71.71a.5.5 0 0 0 .35.14.5064.5064 0 0 0 .36-.14l.45-.46.16.09a3.8588 3.8588 0 0 0 .69.29l.17.05v.64a.4951.4951 0 0 0 .5.5h1a.5607.5607 0 0 0 .34-.12 5.2306 5.2306 0 0 1 -3.34-4.88z" fill="#95e6c1"/></g><g id="Layer_8" fill="#231f20" data-name="Layer 8"><path d="m12.5 15.25a.7511.7511 0 0 0 .75-.75v-1a.7511.7511 0 0 0 -.75-.75h-.4531a4.1781 4.1781 0 0 0 -.3018-.7271l.32-.3208a.75.75 0 0 0 0-1.061l-.707-.707a.7514.7514 0 0 0 -1.06 0l-.32.3208a4.2105 4.2105 0 0 0 -.7281-.3023v-.4526a.7511.7511 0 0 0 -.75-.75h-1a.7511.7511 0 0 0 -.75.75v.4526a4.2105 4.2105 0 0 0 -.7275.3023l-.32-.3208a.7514.7514 0 0 0 -1.06 0l-.707.707a.75.75 0 0 0 0 1.061l.32.3208a4.1781 4.1781 0 0 0 -.3018.7271h-.4537a.7511.7511 0 0 0 -.75.75v1a.7511.7511 0 0 0 .75.75h.4531a4.1781 4.1781 0 0 0 .3018.7271l-.32.3208a.75.75 0 0 0 0 1.061l.707.707a.7514.7514 0 0 0 1.06 0l.32-.3208a4.2105 4.2105 0 0 0 .7275.3023v.4526a.7511.7511 0 0 0 .75.75h1a.7511.7511 0 0 0 .75-.75v-.4526a4.2105 4.2105 0 0 0 .7275-.3023l.32.3208a.7514.7514 0 0 0 1.06 0l.707-.707a.75.75 0 0 0 0-1.061l-.32-.3208a4.1781 4.1781 0 0 0 .3018-.7271zm-.8838-.3125a3.7115 3.7115 0 0 1 -.3974.9561.25.25 0 0 0 .039.3032l.4541.4546a.25.25 0 0 1 0 .354l-.707.707a.25.25 0 0 1 -.3535 0l-.4541-.4546a.2489.2489 0 0 0 -.3037-.0386 3.7187 3.7187 0 0 1 -.9561.397.2506.2506 0 0 0 -.1875.2422v.6416a.25.25 0 0 1 -.25.25h-1a.25.25 0 0 1 -.25-.25v-.6416a.2506.2506 0 0 0 -.1875-.2422 3.7187 3.7187 0 0 1 -.9561-.397.25.25 0 0 0 -.3037.0386l-.4541.4546a.25.25 0 0 1 -.3535 0l-.707-.707a.25.25 0 0 1 0-.354l.4541-.4546a.25.25 0 0 0 .0391-.3032 3.7118 3.7118 0 0 1 -.3975-.9561.25.25 0 0 0 -.2422-.1875h-.6416a.25.25 0 0 1 -.25-.25v-1a.25.25 0 0 1 .25-.25h.6416a.25.25 0 0 0 .2422-.1875 3.7118 3.7118 0 0 1 .3975-.9561.25.25 0 0 0 -.0391-.3032l-.4541-.4546a.25.25 0 0 1 0-.354l.707-.707a.25.25 0 0 1 .3535 0l.4541.4546a.2476.2476 0 0 0 .3037.0386 3.7187 3.7187 0 0 1 .9561-.397.2506.2506 0 0 0 .1875-.2422v-.6416a.25.25 0 0 1 .25-.25h1a.25.25 0 0 1 .25.25v.6416a.2506.2506 0 0 0 .1875.2422 3.7187 3.7187 0 0 1 .9561.397.2476.2476 0 0 0 .3037-.0386l.4541-.4546a.25.25 0 0 1 .3535 0l.707.707a.25.25 0 0 1 0 .354l-.4541.4546a.25.25 0 0 0 -.039.3032 3.7115 3.7115 0 0 1 .3974.9561.25.25 0 0 0 .2422.1875h.6416a.25.25 0 0 1 .25.25v1a.25.25 0 0 1 -.25.25h-.6416a.25.25 0 0 0 -.2422.1875z"/><path d="m8 11.75a2.25 2.25 0 1 0 1.9492 3.3755.25.25 0 0 0 -.4336-.25 1.75 1.75 0 1 1 .2344-.8755.25.25 0 0 0 .5 0 2.2528 2.2528 0 0 0 -2.25-2.25z"/><path d="m21 .75h-18a2.2528 2.2528 0 0 0 -2.25 2.25v16a2.2528 2.2528 0 0 0 2.25 2.25h9a.25.25 0 0 0 0-.5h-9a1.7522 1.7522 0 0 1 -1.75-1.75v-13.2869a3.2421 3.2421 0 0 0 2.75 1.5369h7.1719a2.2656 2.2656 0 0 0 1.5908-.6592l.8281-.8281a1.7625 1.7625 0 0 1 1.2373-.5127h5.1719a.25.25 0 0 0 0-.5h-5.1719a2.2657 2.2657 0 0 0 -1.5908.6592l-.8281.8281a1.7625 1.7625 0 0 1 -1.2373.5127h-7.1719a2.7528 2.7528 0 0 1 -2.75-2.75v-1a1.7522 1.7522 0 0 1 1.75-1.75h18a1.75 1.75 0 0 1 0 3.5.25.25 0 0 0 0 .5 2.2375 2.2375 0 0 0 1.75-.8535v14.6035a1.7473 1.7473 0 0 1 -1.5 1.7247v-.7247a1.2511 1.2511 0 0 0 -1.25-1.25h-1.75v-1.5h1.75a1.2511 1.2511 0 0 0 1.25-1.25v-2a1.2511 1.2511 0 0 0 -1.25-1.25h-1.75v-1.5h1.75a1.2511 1.2511 0 0 0 1.25-1.25v-2a1.2511 1.2511 0 0 0 -1.25-1.25h-4a1.2511 1.2511 0 0 0 -1.25 1.25v2a1.2511 1.2511 0 0 0 1.25 1.25h1.75v1.5h-1.75a1.2511 1.2511 0 0 0 -1.25 1.25v2a1.2511 1.2511 0 0 0 1.25 1.25h1.75v1.5h-1.75a1.2511 1.2511 0 0 0 -1.25 1.25v.75h-1.75a.25.25 0 0 0 0 .5h1.75v.75a1.2511 1.2511 0 0 0 1.25 1.25h4a1.2511 1.2511 0 0 0 1.25-1.25v-.7753a2.2454 2.2454 0 0 0 2-2.2247v-16a2.2528 2.2528 0 0 0 -2.25-2.25zm-5.75 9.25v-2a.7511.7511 0 0 1 .75-.75h4a.7511.7511 0 0 1 .75.75v2a.7511.7511 0 0 1 -.75.75h-4a.7511.7511 0 0 1 -.75-.75zm0 6v-2a.7511.7511 0 0 1 .75-.75h4a.7511.7511 0 0 1 .75.75v2a.7511.7511 0 0 1 -.75.75h-4a.7511.7511 0 0 1 -.75-.75zm5.5 6a.7511.7511 0 0 1 -.75.75h-4a.7511.7511 0 0 1 -.75-.75v-2a.7511.7511 0 0 1 .75-.75h4a.7511.7511 0 0 1 .75.75z"/><path d="m2.75 4a1.25 1.25 0 1 0 1.25-1.25 1.2511 1.2511 0 0 0 -1.25 1.25zm2 0a.75.75 0 1 1 -.75-.75.7511.7511 0 0 1 .75.75z"/><path d="m5.75 4a1.25 1.25 0 1 0 1.25-1.25 1.2511 1.2511 0 0 0 -1.25 1.25zm2 0a.75.75 0 1 1 -.75-.75.7511.7511 0 0 1 .75.75z"/><path d="m8.75 4a1.25 1.25 0 1 0 1.25-1.25 1.2511 1.2511 0 0 0 -1.25 1.25zm2 0a.75.75 0 1 1 -.75-.75.7511.7511 0 0 1 .75.75z"/><path d="m16 8.25h2a.25.25 0 0 0 0-.5h-2a.25.25 0 0 0 0 .5z"/><path d="m20.25 9a.25.25 0 0 0 -.25-.25h-4a.25.25 0 0 0 0 .5h4a.25.25 0 0 0 .25-.25z"/><path d="m16 14.25h2a.25.25 0 0 0 0-.5h-2a.25.25 0 0 0 0 .5z"/><path d="m20.25 15a.25.25 0 0 0 -.25-.25h-4a.25.25 0 0 0 0 .5h4a.25.25 0 0 0 .25-.25z"/><path d="m16 20.25h2a.25.25 0 0 0 0-.5h-2a.25.25 0 0 0 0 .5z"/><path d="m20 20.75h-4a.25.25 0 0 0 0 .5h4a.25.25 0 0 0 0-.5z"/></g></svg>