<svg height="512pt" viewBox="0 0 512 512.00127" width="512pt" xmlns="http://www.w3.org/2000/svg"><path d="m12.800781 76.800781c7.070313 0 12.800781-5.730469 12.800781-12.800781v-38.402344h38.398438c7.070312 0 12.800781-5.730468 12.800781-12.796875 0-7.070312-5.730469-12.800781-12.800781-12.800781h-51.199219c-7.070312 0-12.800781 5.730469-12.800781 12.800781v51.199219c0 7.070312 5.730469 12.800781 12.800781 12.800781zm0 0"/><path d="m499.199219 0h-51.199219c-7.070312 0-12.800781 5.730469-12.800781 12.800781 0 7.070313 5.730469 12.800781 12.800781 12.800781h38.398438v38.398438c0 7.070312 5.730468 12.800781 12.800781 12.800781 7.070312 0 12.800781-5.730469 12.800781-12.800781v-51.199219c0-7.070312-5.730469-12.800781-12.800781-12.800781zm0 0"/><path d="m64 486.398438h-38.398438v-38.398438c0-7.070312-5.730468-12.800781-12.800781-12.800781-7.070312 0-12.800781 5.730469-12.800781 12.800781v51.199219c0 7.070312 5.730469 12.800781 12.800781 12.800781h51.199219c7.070312 0 12.800781-5.730469 12.800781-12.800781 0-7.070313-5.730469-12.800781-12.800781-12.800781zm0 0"/><path d="m499.199219 435.199219c-7.070313 0-12.800781 5.730469-12.800781 12.800781v38.402344h-38.398438c-7.070312 0-12.800781 5.730468-12.800781 12.796875 0 7.070312 5.730469 12.800781 12.800781 12.800781h51.199219c7.070312 0 12.800781-5.730469 12.800781-12.800781v-51.199219c0-7.070312-5.730469-12.800781-12.800781-12.800781zm0 0"/><path d="m76.800781 140.800781c0 7.066407 5.730469 12.800781 12.800781 12.800781h51.199219c7.070313 0 12.800781-5.734374 12.800781-12.800781v-51.199219c0-7.070312-5.730468-12.800781-12.800781-12.800781h-51.199219c-7.070312 0-12.800781 5.730469-12.800781 12.800781zm25.597657-38.402343h25.601562v25.601562h-25.601562zm0 0"/><path d="m371.199219 153.601562h51.199219c7.070312 0 12.800781-5.734374 12.800781-12.800781v-51.199219c0-7.070312-5.730469-12.800781-12.800781-12.800781h-51.199219c-7.070313 0-12.800781 5.730469-12.800781 12.800781v51.199219c.003906 7.066407 5.734374 12.800781 12.800781 12.800781zm12.800781-51.203124h25.601562v25.601562h-25.601562zm0 0"/><path d="m140.800781 358.398438h-51.199219c-7.070312 0-12.800781 5.734374-12.800781 12.800781v51.199219c0 7.070312 5.730469 12.800781 12.800781 12.800781h51.199219c7.070313 0 12.800781-5.730469 12.800781-12.800781v-51.199219c0-7.066407-5.730468-12.800781-12.800781-12.800781zm-12.800781 51.199218h-25.601562v-25.597656h25.601562zm0 0"/><path d="m371.199219 409.597656h-38.398438v-38.398437c0-7.070313-5.730469-12.800781-12.800781-12.800781s-12.800781 5.730468-12.800781 12.800781v51.199219c0 7.070312 5.730469 12.800781 12.800781 12.800781h51.199219c7.070312 0 12.800781-5.730469 12.800781-12.800781 0-7.070313-5.730469-12.800782-12.800781-12.800782zm0 0"/><path d="m435.199219 345.601562c0-7.070312-5.730469-12.800781-12.800781-12.800781-7.066407 0-12.796876 5.730469-12.796876 12.800781v76.796876c0 7.070312 5.730469 12.800781 12.796876 12.800781 7.070312 0 12.800781-5.730469 12.800781-12.800781zm0 0"/><path d="m435.199219 294.398438c0-7.070313-5.730469-12.800782-12.800781-12.800782h-51.199219c-7.070313 0-12.800781 5.730469-12.800781 12.800782v76.800781c0 7.070312 5.730468 12.800781 12.800781 12.800781 7.070312 0 12.800781-5.730469 12.800781-12.800781v-64h38.398438c7.070312 0 12.800781-5.730469 12.800781-12.800781zm0 0"/><path d="m320 332.800781c7.070312 0 12.800781-5.730469 12.800781-12.800781v-25.601562c0-7.070313-5.730469-12.800782-12.800781-12.800782h-76.800781c-7.066407 0-12.796875 5.730469-12.796875 12.800782 0 7.070312 5.730468 12.800781 12.796875 12.800781h64v12.800781c0 7.070312 5.730469 12.800781 12.800781 12.800781zm0 0"/><path d="m192 384h25.601562c7.066407 0 12.800782-5.730469 12.800782-12.800781 0-7.070313-5.734375-12.800781-12.800782-12.800781h-25.601562c-7.070312 0-12.800781 5.730468-12.800781 12.800781 0 7.070312 5.730469 12.800781 12.800781 12.800781zm0 0"/><path d="m268.800781 332.800781c-7.070312 0-12.800781 5.730469-12.800781 12.800781v63.996094h-64c-7.070312 0-12.800781 5.730469-12.800781 12.800782 0 7.070312 5.730469 12.800781 12.800781 12.800781h76.800781c7.070313 0 12.800781-5.730469 12.800781-12.800781v-76.796876c0-7.070312-5.730468-12.800781-12.800781-12.800781zm0 0"/><path d="m89.601562 281.601562c-7.070312 0-12.800781 5.730469-12.800781 12.800782v25.597656c0 7.070312 5.730469 12.800781 12.800781 12.800781h102.398438c7.070312 0 12.800781-5.730469 12.800781-12.800781v-25.597656c0-7.070313-5.730469-12.800782-12.800781-12.800782s-12.800781 5.730469-12.800781 12.800782v12.796875h-76.800781v-12.800781c0-7.066407-5.730469-12.796876-12.796876-12.796876zm0 0"/><path d="m192 102.398438h115.199219v38.402343c0 7.066407 5.730469 12.800781 12.800781 12.800781s12.800781-5.734374 12.800781-12.800781v-51.199219c0-7.070312-5.730469-12.800781-12.800781-12.800781h-128c-7.070312 0-12.800781 5.730469-12.800781 12.800781 0 7.070313 5.730469 12.796876 12.800781 12.796876zm0 0"/><path d="m192 153.601562h76.800781c7.070313 0 12.800781-5.734374 12.800781-12.800781 0-7.070312-5.730468-12.800781-12.800781-12.800781h-76.800781c-7.070312 0-12.800781 5.730469-12.800781 12.800781 0 7.066407 5.730469 12.800781 12.800781 12.800781zm0 0"/><path d="m371.199219 204.800781c7.070312 0 12.800781-5.730469 12.800781-12.800781s-5.730469-12.800781-12.800781-12.800781h-76.800781c-7.066407 0-12.800782 5.730469-12.800782 12.800781s5.734375 12.800781 12.800782 12.800781zm0 0"/><path d="m473.601562 256c7.070313 0 12.800782-5.730469 12.800782-12.800781 0-7.070313-5.730469-12.800781-12.800782-12.800781h-38.402343v-38.398438c0-7.070312-5.730469-12.800781-12.800781-12.800781-7.066407 0-12.796876 5.730469-12.796876 12.800781v38.398438h-153.601562v-38.398438c0-7.070312-5.730469-12.800781-12.800781-12.800781-7.070313 0-12.796875 5.730469-12.796875 12.800781v38.398438h-128.003906v-25.597657h89.601562c7.070312 0 12.800781-5.730469 12.800781-12.800781s-5.730469-12.800781-12.800781-12.800781h-102.398438c-7.070312 0-12.800781 5.730469-12.800781 12.800781v38.398438h-38.398437c-7.070313 0-12.800782 5.730468-12.800782 12.800781 0 7.070312 5.730469 12.800781 12.800782 12.800781zm0 0"/></svg>