<svg id="Capa_1" enable-background="new 0 0 512 512" height="512" viewBox="0 0 512 512" width="512" xmlns="http://www.w3.org/2000/svg"><path d="m90 271h61v-30h-91v211h151v-151h-121z" fill="#57d9ad"/><path d="m301 60v91h-30v-31h-60v-60h-151v151h121v60h30v-30h30v150h60v-30h-30v-150h-60v-60h30v30h60v30h151v-151z" fill="#57d9ad"/><path d="m301 391h-45v-180h15v150h30z" fill="#26bfa6"/><path d="m452 60v151h-151v-30h-45v-61h15v31h30v-91z" fill="#26bfa6"/><path d="m241 60h30v30h-30z" fill="#57d9ad"/><path d="m301 301h30v30h-30z" fill="#26bfa6"/><path d="m422 271h-31v-30h-90v30h60v60h30v-30h61v-60h-30z" fill="#26bfa6"/><path d="m361 391v61h-120v-30h90v-31z" fill="#57d9ad"/><path d="m422 361h-61v30h61v61h30v-121h-30z" fill="#26bfa6"/><path d="m30 120h-30v-120h121v30h-91z" fill="#57d9ad"/><path d="m121 512h-121v-121h30v91h91z" fill="#57d9ad"/><path d="m512 120h-30v-90h-91v-30h121z" fill="#26bfa6"/><path d="m512 512h-121v-30h91v-91h30z" fill="#26bfa6"/><path d="m241 60h30v30h-30z" fill="#57d9ad"/><g fill="#26bfa6"><path d="m301 301h30v30h-30z"/><path d="m256 60h15v30h-15z"/><path d="m331 391h30v61h-105v-30h75z"/></g><path d="m90 90h91v91h-91z" fill="#e6ffff"/><path d="m331 90h91v91h-91z" fill="#d9f2ff"/><path d="m121 120h30v31h-30z" fill="#57d9ad"/><path d="m361 120h30v31h-30z" fill="#26bfa6"/><path d="m181 331v91h-91v-91z" fill="#e6ffff"/><path d="m121 361h30v30h-30z" fill="#57d9ad"/></svg>