<svg height="512pt" viewBox="0 0 512 512" width="512pt" xmlns="http://www.w3.org/2000/svg" xmlns:xlink="http://www.w3.org/1999/xlink"><linearGradient id="a" gradientUnits="userSpaceOnUse" x1="0" x2="512" y1="256" y2="256"><stop offset="0" stop-color="#80d8ff"/><stop offset="1" stop-color="#ea80fc"/></linearGradient><path d="m76 218v-122c0-11.046875 8.953125-20 20-20h122c11.046875 0 20 8.953125 20 20s-8.953125 20-20 20h-102v102c0 11.046875-8.953125 20-20 20s-20-8.953125-20-20zm198 0v-122c0-11.046875 8.953125-20 20-20h122c11.046875 0 20 8.953125 20 20v122c0 11.046875-8.953125 20-20 20h-122c-11.046875 0-20-8.953125-20-20zm40-20h82v-82h-82zm198-178v472c0 11.046875-8.953125 20-20 20h-472c-11.046875 0-20-8.953125-20-20v-472c0-11.046875 8.953125-20 20-20h472c11.046875 0 20 8.953125 20 20zm-40 20h-432v432h432zm-396 376v-122c0-11.046875 8.953125-20 20-20h122c11.046875 0 20 8.953125 20 20v102h56c11.046875 0 20 8.953125 20 20s-8.953125 20-20 20c-4.992188 0-192.847656 0-198 0-11.046875 0-20-8.953125-20-20zm40-20h82v-82h-82zm275-30c-13.808594 0-25 11.191406-25 25s11.191406 25 25 25 25-11.191406 25-25-11.191406-25-25-25zm25-92h-76c-11.046875 0-20 8.953125-20 20s8.953125 20 20 20h76c11.046875 0 20-8.953125 20-20s-8.953125-20-20-20zm0 0" fill="url(#a)"/></svg>